HIERARCHY
ROOT hip
{
  OFFSET 0 0 0
  CHANNELS 6 Xposition Yposition Zposition Zrotation Yrotation Xrotation
  JOINT abdomen
  {
    OFFSET 0 20.6881 -0.73152
    CHANNELS 3 Zrotation Xrotation Yrotation
    JOINT chest
    {
      OFFSET 0 11.7043 -0.48768
      CHANNELS 3 Zrotation Xrotation Yrotation
      JOINT neck
      {
        OFFSET 0 22.1894 -2.19456
        CHANNELS 3 Zrotation Xrotation Yrotation
        JOINT head
        {
          OFFSET -0.24384 7.07133 1.2192
          CHANNELS 3 Zrotation Xrotation Yrotation
          JOINT leftEye
          {
            OFFSET 4.14528 8.04674 8.04672
            CHANNELS 3 Zrotation Xrotation Yrotation
            End Site
            {
              OFFSET 1 0 0
            }
          }
          JOINT rightEye
          {
            OFFSET -3.6576 8.04674 8.04672
            CHANNELS 3 Zrotation Xrotation Yrotation
            End Site
            {
              OFFSET 1 0 0
            }
          }
        }
      }
      JOINT rCollar
      {
        OFFSET -2.68224 19.2634 -4.8768
        CHANNELS 3 Zrotation Xrotation Yrotation
        JOINT rShldr
        {
          OFFSET -8.77824 -1.95073 1.46304
          CHANNELS 3 Zrotation Xrotation Yrotation
          JOINT rForeArm
          {
            OFFSET -28.1742 -1.7115 0.48768
            CHANNELS 3 Zrotation Xrotation Yrotation
            JOINT rHand
            {
              OFFSET -22.5879 0.773209 7.07136
              CHANNELS 3 Zrotation Xrotation Yrotation
              JOINT rThumb1
              {
                OFFSET -1.2192 -0.487915 3.41376
                CHANNELS 3 Zrotation Xrotation Yrotation
                JOINT rThumb2
                {
                  OFFSET -3.37035 -0.52449 3.41376
                  CHANNELS 3 Zrotation Xrotation Yrotation
                  End Site
                  {
                    OFFSET -1.78271 -1.18214 1.43049
                  }
                }
              }
              JOINT rIndex1
              {
                OFFSET -7.75947 0.938293 5.60832
                CHANNELS 3 Zrotation Xrotation Yrotation
                JOINT rIndex2
                {
                  OFFSET -2.54057 -0.884171 1.56538
                  CHANNELS 3 Zrotation Xrotation Yrotation
                  End Site
                  {
                    OFFSET -1.62519 -0.234802 1.16502
                  }
                }
              }
              JOINT rMid1
              {
                OFFSET -8.24714 1.18213 3.41376
                CHANNELS 3 Zrotation Xrotation Yrotation
                JOINT rMid2
                {
                  OFFSET -3.10165 -0.590103 1.0647
                  CHANNELS 3 Zrotation Xrotation Yrotation
                  End Site
                  {
                    OFFSET -2.48547 -0.328903 0.83742
                  }
                }
              }
              JOINT rRing1
              {
                OFFSET -8.82822 0.546677 1.51678
                CHANNELS 3 Zrotation Xrotation Yrotation
                JOINT rRing2
                {
                  OFFSET -2.60934 -0.819778 -0.0198488
                  CHANNELS 3 Zrotation Xrotation Yrotation
                  End Site
                  {
                    OFFSET -2.33842 -0.294052 0.168128
                  }
                }
              }
              JOINT rPinky1
              {
                OFFSET -8.27202 -0.0477905 -0.4584
                CHANNELS 3 Zrotation Xrotation Yrotation
                JOINT rPinky2
                {
                  OFFSET -1.82734 -0.647385 -0.700984
                  CHANNELS 3 Zrotation Xrotation Yrotation
                  End Site
                  {
                    OFFSET -1.69225 -0.51767 -0.607171
                  }
                }
              }
            }
          }
        }
      }
      JOINT lCollar
      {
        OFFSET 2.68224 19.2634 -4.8768
        CHANNELS 3 Zrotation Xrotation Yrotation
        JOINT lShldr
        {
          OFFSET 8.77824 -1.95073 1.46304
          CHANNELS 3 Zrotation Xrotation Yrotation
          JOINT lForeArm
          {
            OFFSET 28.1742 -1.7115 0.48768
            CHANNELS 3 Zrotation Xrotation Yrotation
            JOINT lHand
            {
              OFFSET 22.5879 0.773209 7.07136
              CHANNELS 3 Zrotation Xrotation Yrotation
              JOINT lThumb1
              {
                OFFSET 1.2192 -0.487915 3.41376
                CHANNELS 3 Zrotation Xrotation Yrotation
                JOINT lThumb2
                {
                  OFFSET 3.37035 -0.52449 3.41376
                  CHANNELS 3 Zrotation Xrotation Yrotation
                  End Site
                  {
                    OFFSET 1.78271 -1.18214 1.43049
                  }
                }
              }
              JOINT lIndex1
              {
                OFFSET 7.75947 0.938293 5.60832
                CHANNELS 3 Zrotation Xrotation Yrotation
                JOINT lIndex2
                {
                  OFFSET 2.54057 -0.884171 1.56538
                  CHANNELS 3 Zrotation Xrotation Yrotation
                  End Site
                  {
                    OFFSET 1.62519 -0.234802 1.16502
                  }
                }
              }
              JOINT lMid1
              {
                OFFSET 8.24714 1.18213 3.41376
                CHANNELS 3 Zrotation Xrotation Yrotation
                JOINT lMid2
                {
                  OFFSET 3.10165 -0.590103 1.0647
                  CHANNELS 3 Zrotation Xrotation Yrotation
                  End Site
                  {
                    OFFSET 2.48547 -0.328903 0.83742
                  }
                }
              }
              JOINT lRing1
              {
                OFFSET 8.82822 0.546677 1.51678
                CHANNELS 3 Zrotation Xrotation Yrotation
                JOINT lRing2
                {
                  OFFSET 2.60934 -0.819778 -0.0198488
                  CHANNELS 3 Zrotation Xrotation Yrotation
                  End Site
                  {
                    OFFSET 2.33842 -0.294052 0.168128
                  }
                }
              }
              JOINT lPinky1
              {
                OFFSET 8.27202 -0.0477905 -0.4584
                CHANNELS 3 Zrotation Xrotation Yrotation
                JOINT lPinky2
                {
                  OFFSET 1.82734 -0.647385 -0.700984
                  CHANNELS 3 Zrotation Xrotation Yrotation
                  End Site
                  {
                    OFFSET 1.69225 -0.51767 -0.607171
                  }
                }
              }
            }
          }
        }
      }
    }
  }
  JOINT rButtock
  {
    OFFSET -8.77824 4.35084 1.2192
    CHANNELS 3 Zrotation Xrotation Yrotation
    JOINT rThigh
    {
      OFFSET 0 -1.70687 -2.19456
      CHANNELS 3 Zrotation Xrotation Yrotation
      JOINT rShin
      {
        OFFSET 0 -36.8199 0.73152
        CHANNELS 3 Zrotation Xrotation Yrotation
        JOINT rFoot
        {
          OFFSET 0.73152 -45.1104 -5.12064
          CHANNELS 3 Zrotation Xrotation Yrotation
          End Site
          {
            OFFSET -1.1221 -3.69964 12.103
          }
        }
      }
    }
  }
  JOINT lButtock
  {
    OFFSET 8.77824 4.35084 1.2192
    CHANNELS 3 Zrotation Xrotation Yrotation
    JOINT lThigh
    {
      OFFSET 0 -1.70687 -2.19456
      CHANNELS 3 Zrotation Xrotation Yrotation
      JOINT lShin
      {
        OFFSET 0 -36.8199 0.73152
        CHANNELS 3 Zrotation Xrotation Yrotation
        JOINT lFoot
        {
          OFFSET -0.73152 -45.1104 -5.12064
          CHANNELS 3 Zrotation Xrotation Yrotation
          End Site
          {
            OFFSET 1.1221 -3.69964 12.103
          }
        }
      }
    }
  }
}
MOTION
Frames:	6
Frame Time:	0.03333
0.0 0.0 0.0 0.0 0.0 0.0 0.0 0.0 0.0 0.0 0.0 0.0 0.0 0.0 0.0 0.0 0.0 0.0 0.0 0.0 0.0 0.0 0.0 0.0 0.0 0.0 0.0 0.0 0.0 0.0 0.0 0.0 0.0 0.0 0.0 0.0 0.0 0.0 0.0 0.0 0.0 0.0 0.0 0.0 0.0 0.0 0.0 0.0 0.0 0.0 0.0 0.0 0.0 0.0 0.0 0.0 0.0 0.0 0.0 0.0 0.0 0.0 0.0 0.0 0.0 0.0 0.0 0.0 0.0 0.0 0.0 0.0 0.0 0.0 0.0 0.0 0.0 0.0 0.0 0.0 0.0 0.0 0.0 0.0 0.0 0.0 0.0 0.0 0.0 0.0 0.0 0.0 0.0 0.0 0.0 0.0 0.0 0.0 0.0 0.0 0.0 0.0 0.0 0.0 0.0 0.0 0.0 0.0 0.0 0.0 0.0 0.0 0.0 0.0 0.0 0.0 0.0 0.0 0.0 0.0 0.0 0.0 0.0 0.0 0.0 0.0 0.0 0.0 0.0 0.0 0.0 0.0
-0.0058 3.9098 0.015200000000000002 -1.198917 57.367997 -0.804885 -1.663405 -10.004593 -180.0 -64.987729 -20.556152 -16.057329 58.552303 37.905495 13.933041 140.844048 14.325422 -147.850528 57.570723 -2.784687 -5.066088 18.506721 6.113867 36.297579 138.84458 43.384307 -10.331304 -158.099902 -10.041137 175.374162 170.943754 60.02831 -176.202302 6.782207 -45.33713 -137.929178 176.965068 14.143558 161.097356 -93.349757 -14.30155 -6.001213 -37.979107 -28.5356 -73.945644 -96.95188 63.46599 -105.391442 -102.754566 -75.361727 52.970766 -22.525692 59.495187 -157.356416 62.254849 72.988985 -59.549236 18.086556 -48.402317 160.364861 -5.671599 20.706091 5.58879 -171.347768 -1.591754 43.951445 -58.559098 -75.319711 122.52379 170.563757 17.394786 -29.891549 178.282336 64.458981 11.697104 156.630669 44.804138 1.647819 -55.898242 46.085447 -31.484185 -147.117522 9.864494 129.361182 82.228714 78.058208 -88.244299 173.006003 46.493909 -160.538984 -18.404141 21.306603 -137.624674 -22.743466 4.902678 -179.602757 -101.391049 53.41542 -76.943052 -122.544938 -84.102581 86.30723 -160.989157 -14.280085 -34.693377 -138.875116 45.199636 -75.441139 137.274582 -23.103506 -104.196661 147.541278 -36.53223 -0.0 -7.713472 -2.579615 -99.839192 -113.544711 -60.596982 -108.172384 -62.418366 19.98759 -48.597197 62.399117 33.292839 -45.140376 0.621697 -3.291859 87.64539 124.621329 42.179631 51.011628
-0.014899999999999998 5.161099999999999 -0.0217 3.592979 -34.187033 0.549226 -0.594907 14.065878 -92.86734 107.806909 13.169279 163.576187 97.728793 8.143845 -45.496828 86.396215 42.142332 -34.524012 -178.671852 -0.305719 -25.924566 -6.573187 -1.355303 23.276896 -22.890395 57.127054 -157.804499 -153.174232 30.083678 161.849156 -11.834569 7.045861 112.296441 6.594384 16.438695 -6.88974 -75.170411 47.525512 22.854543 28.641385 -28.422738 29.992602 -27.05856 -43.824072 -39.477292 94.265281 -33.83361 -116.617646 12.450851 -69.966442 -122.937075 91.675312 52.870039 67.940732 29.910858 -58.29775 -69.930263 51.653941 6.074583 39.712296 -16.710323 30.034729 116.930605 -34.626825 18.478378 172.474114 135.176742 0.902777 -91.956208 -77.414403 10.178313 -43.867078 26.144825 -51.674559 -80.682706 -47.25244 -13.890006 19.468563 -6.511723 12.852202 -11.487597 172.339465 -2.788821 -112.266372 -102.287694 -46.687548 -2.293471 -7.789319 11.564311 -90.538707 6.7962 -3.358045 -163.878439 29.409248 26.051644 -154.727919 -54.345414 -34.690554 -24.58223 85.182515 -19.660667 73.07331 -74.989217 1.504053 13.897812 -147.318483 54.520676 -149.206098 -20.07426 3.936039 29.380204 33.506826 -46.181203 144.819636 62.177864 -67.145908 173.75918 91.282196 -13.361945 42.0092 12.511076 1.094614 -16.816299 12.073578 -77.432806 11.844369 -105.203461 48.495691 15.004927 -124.874585 -22.192672 -86.686528
-0.0279 6.827500000000001 -0.0151 7.093576 -34.064103 -1.696181 -5.810107 43.169304 -0.0 -75.747641 -80.862375 -28.427686 89.509182 30.824479 48.856323 34.097784 -2.271185 -59.062862 -149.973923 -3.878322 -14.390329 19.309933 3.80502 22.096345 107.390126 26.993074 -38.103532 21.115122 -21.729839 12.879322 179.548026 24.924256 34.676332 157.067292 -11.915389 137.09225 2.165491 -14.92764 -12.889159 96.89739 -74.714997 59.192761 -172.366138 -59.793291 151.989583 168.237206 -24.128272 -111.918344 -50.408133 4.658605 166.255024 -46.374324 36.166955 -173.084978 -64.952658 5.995019 -165.017952 -92.267524 -25.456778 -151.503842 -108.099002 0.404198 -160.865488 -14.017012 -27.640003 47.333382 -44.405039 -70.890608 -43.292126 -97.04811 63.397714 99.155613 -2.972475 -7.311511 -91.096635 -44.574928 1.138658 20.259159 175.066582 -16.325706 -67.951195 -101.958348 -62.14169 -12.288091 -6.650937 -0.748729 -31.111044 -175.180823 56.641541 -97.758583 -28.589813 14.151696 -12.102056 115.417253 -72.842293 159.308801 -73.640022 -54.315687 -59.893344 97.466875 -5.799253 87.052288 98.761488 51.220404 160.609494 123.497409 7.994209 73.979187 54.35504 51.553098 45.912283 -82.487601 -19.748637 39.312497 89.976558 -21.911369 -122.699557 -75.141499 -21.924058 -57.623334 -67.290419 52.015751 -44.871993 135.627566 -30.522509 -95.527843 -161.336764 -65.123996 96.327781 -101.874186 21.431118 -45.261084
0.00019999999999999998 8.1875 0.0574 8.543879 -33.996881 -2.945512 -9.708819 51.061829 -167.594679 55.303792 59.164563 158.189387 73.483939 50.814145 143.351859 3.704081 -17.408357 -124.696262 -147.044546 -2.67925 -9.040771 25.624772 5.806634 25.14292 -63.511477 -39.001902 -160.916949 175.819915 75.92498 -174.61295 -26.026402 10.894291 122.826018 13.627574 -4.961352 -0.277542 -9.212298 -0.64972 -8.486109 119.989644 -73.913588 84.71259 -161.057319 16.791999 120.725802 57.304439 18.019482 152.109197 120.673938 63.577074 -27.672254 -101.181075 32.334388 -72.472286 -71.239066 4.723433 -163.622884 -115.337135 -25.725916 -173.924797 -109.518568 -11.702876 -144.522664 -117.226813 -72.017296 -90.003523 157.494772 21.366641 -149.199149 128.376724 60.129111 -107.779577 -135.383494 -80.478098 -12.756855 -135.075063 31.722401 -148.721662 120.358119 -13.112886 -76.327483 42.061815 -52.701267 144.915051 58.049376 -54.015694 122.260517 -165.761135 -39.034586 7.915518 -23.356534 43.338762 0.412227 -61.585662 -64.779829 -19.706116 -61.754284 -46.934474 -49.771218 62.435284 -5.265957 86.513679 -43.002761 35.682303 -9.855176 21.872392 20.986934 -27.580694 -58.750568 4.520769 -12.222433 86.854184 -14.909529 -0.0 -96.995803 85.861705 38.713071 114.714939 -6.560908 56.388754 67.551099 13.379533 26.454955 -114.329983 -41.542126 56.775522 110.187027 11.34039 -11.76105 122.03972 -21.710974 51.249723
0.0893 8.7432 0.1292 8.726914 -34.983119 -3.33262 -16.148108 55.66284 -0.0 -50.017169 -66.422643 -14.758714 48.895907 39.246955 -110.469917 -36.329594 2.670852 163.762986 -152.117103 -2.267941 -9.117878 22.90986 4.798116 23.363458 82.785084 44.902539 -5.531459 15.796912 18.828988 28.13089 111.12732 54.661848 94.179433 177.082417 24.654143 144.850228 -7.278593 -5.292789 -2.755808 -16.442469 -16.160726 0.167405 114.75785 -77.583442 83.692676 110.036162 -11.185116 -137.544589 -40.067113 -26.483989 -164.058117 145.84275 -1.091704 -15.724181 76.860679 27.465191 -16.92858 -30.733287 -34.346431 -43.077725 2.888098 -36.210614 -17.932328 -133.816468 2.185024 -127.34591 -165.112842 -78.526529 -159.201042 116.976308 -59.554513 121.578808 171.085336 -18.540753 97.579049 -48.985967 -0.962878 0.891698 -54.387868 25.946125 1.187842 -94.52655 -24.535252 -143.901781 -7.614438 -4.133769 82.684527 -20.897982 -84.887906 -113.200386 121.14889 9.267306 -177.17685 149.469242 -77.095588 164.774069 -102.079081 -65.062788 -75.355436 16.667081 27.00961 60.646092 -15.75588 -13.069656 5.97211 -12.171324 -38.573943 5.114798 -5.761687 10.518008 28.931443 8.069073 -45.756807 5.911219 92.819697 52.038538 170.918816 69.759188 -30.080326 62.981667 107.611656 39.208234 44.612289 -142.283536 -9.658154 8.253147 -153.837647 70.889394 25.41866 -108.42343 7.300924 -123.436729
